<?xml version="1.0" encoding="UTF-8"?>
<svg width="32" height="32" viewBox="0 0 32 32" fill="none" xmlns="http://www.w3.org/2000/svg">
    <!-- Main toolbox body shadow -->
    <rect x="4.5" y="12.5" width="23" height="15" rx="2.5" fill="#000000" fill-opacity="0.1"/>
    
    <!-- Main toolbox body with softer corners and modern color -->
    <rect x="4" y="12" width="24" height="16" rx="3" fill="#27272A"/>

    <!-- Bottom highlight for depth -->
    <path d="M4 25L28 25" stroke="#3F3F46" stroke-width="0.5"/>

    <!-- Toolbox handle with rounded caps and shadow -->
    <path d="M12 12V8C12 6.89543 12.8954 6 14 6H18C19.1046 6 20 6.89543 20 8V12" 
        stroke="#000000" stroke-opacity="0.1" stroke-width="2" stroke-linecap="round"/>
    <path d="M12 12V8C12 6.89543 12.8954 6 14 6H18C19.1046 6 20 6.89543 20 8V12" 
        stroke="#71717A" stroke-width="1.5" stroke-linecap="round"/>

    <!-- Tool shapes with modern styling -->
    <rect x="8" y="16" width="4" height="8" rx="1.5" fill="#3F3F46"/>
    <rect x="14" y="16" width="4" height="8" rx="1.5" fill="#3F3F46"/>
    <rect x="20" y="16" width="4" height="8" rx="1.5" fill="#3F3F46"/>

    <!-- Subtle highlights on tools -->
    <rect x="8" y="16" width="4" height="1.5" rx="0.75" fill="#52525B"/>
    <rect x="14" y="16" width="4" height="1.5" rx="0.75" fill="#52525B"/>
    <rect x="20" y="16" width="4" height="1.5" rx="0.75" fill="#52525B"/>

    <!-- Tool bottom shadows -->
    <rect x="8" y="22.5" width="4" height="1" rx="0.5" fill="#18181B" fill-opacity="0.3"/>
    <rect x="14" y="22.5" width="4" height="1" rx="0.5" fill="#18181B" fill-opacity="0.3"/>
    <rect x="20" y="22.5" width="4" height="1" rx="0.5" fill="#18181B" fill-opacity="0.3"/>
</svg>